<svg width="173" height="70" viewBox="0 0 173 70" fill="none" xmlns="http://www.w3.org/2000/svg">
<path d="M85.7484 37.0207H81.79C79.6855 37.0207 78.6333 38.1183 78.6333 40.2804V45.4027C78.6333 47.5648 79.7022 48.6624 81.79 48.6624H85.7484C87.8528 48.6624 88.9051 47.5648 88.9051 45.4027V40.2804C88.9051 38.1183 87.8528 37.0207 85.7484 37.0207ZM87.5522 40.2804V45.4027C87.5522 46.6667 86.9843 47.2488 85.7484 47.2488H81.79C80.5707 47.2488 79.9862 46.6667 79.9862 45.4027V40.2804C79.9862 39.0164 80.554 38.4343 81.79 38.4343H85.7484C86.9676 38.4177 87.5522 39.0164 87.5522 40.2804Z" fill="black"/>
<path d="M96.9222 37.0207H90.7759V48.6624H92.1454V43.54H96.9222C99.0267 43.54 100.079 42.4424 100.079 40.2804C100.079 38.1183 99.0267 37.0207 96.9222 37.0207ZM98.726 40.2804C98.726 41.5443 98.1582 42.1264 96.9222 42.1264H92.1454V38.4177H96.9222C98.1415 38.4177 98.726 39.0164 98.726 40.2804Z" fill="black"/>
<path d="M105.173 38.4177H111.319V37.0041H105.173C103.068 37.0041 102.016 38.1017 102.016 40.2637V45.3861C102.016 47.5481 103.085 48.6458 105.173 48.6458H111.319V47.2322H105.173C103.954 47.2322 103.369 46.6501 103.369 45.3861V43.5401H111.302V42.1264H103.369V40.2804C103.369 39.0164 103.937 38.4177 105.173 38.4177Z" fill="black"/>
<path d="M121.574 42.8415C122.192 42.2927 122.493 41.4445 122.493 40.2804C122.493 38.1183 121.424 37.0207 119.336 37.0207H113.19V48.6624H114.56V43.54H119.336C120.556 43.54 121.14 44.1221 121.14 45.3861V48.6458H122.51V45.3861C122.493 44.2386 122.192 43.3737 121.574 42.8415ZM121.14 40.2804C121.14 41.5443 120.572 42.1264 119.336 42.1264H114.56V38.4177H119.336C120.556 38.4177 121.14 39.0164 121.14 40.2804Z" fill="black"/>
<path d="M130.527 37.0207H127.554C125.449 37.0207 124.397 38.1183 124.397 40.2804V48.6624H125.767V44.5712H132.33V48.6624H133.7V40.2804C133.7 38.1183 132.631 37.0207 130.527 37.0207ZM132.33 40.2804V43.1575H125.767V40.2804C125.767 39.0164 126.334 38.4343 127.57 38.4343H130.543C131.763 38.4177 132.33 39.0164 132.33 40.2804Z" fill="black"/>
<path d="M135.587 37.0207V38.4177H139.562V48.6624H140.915V38.4177H144.89V37.0207H135.587Z" fill="black"/>
<path d="M167.355 42.8415C167.973 42.2927 168.273 41.4445 168.273 40.2804C168.273 38.1183 167.204 37.0207 165.117 37.0207H158.97V48.6624H160.34V43.54H165.117C166.336 43.54 166.92 44.1221 166.92 45.3861V48.6458H168.29V45.3861C168.273 44.2386 167.956 43.3737 167.355 42.8415ZM166.904 40.2804C166.904 41.5443 166.336 42.1264 165.1 42.1264H160.34V38.4177H165.117C166.336 38.4177 166.904 39.0164 166.904 40.2804Z" fill="black"/>
<path d="M167.355 42.8415C167.973 42.2927 168.273 41.4445 168.273 40.2804C168.273 38.1183 167.204 37.0207 165.117 37.0207H158.97V48.6624H160.34V43.54H165.117C166.336 43.54 166.92 44.1221 166.92 45.3861V48.6458H168.29V45.3861C168.273 44.2386 167.956 43.3737 167.355 42.8415ZM166.904 40.2804C166.904 41.5443 166.336 42.1264 165.1 42.1264H160.34V38.4177H165.117C166.336 38.4177 166.904 39.0164 166.904 40.2804Z" fill="black"/>
<path d="M153.91 37.0207H149.935C147.83 37.0207 146.778 38.1183 146.778 40.2804V45.4027C146.778 47.5648 147.847 48.6624 149.935 48.6624H153.91C156.014 48.6624 157.066 47.5648 157.066 45.4027V40.2804C157.083 38.1183 156.014 37.0207 153.91 37.0207ZM155.713 40.2804V45.4027C155.713 46.6667 155.146 47.2488 153.91 47.2488H149.935C148.715 47.2488 148.131 46.6667 148.131 45.4027V40.2804C148.131 39.0164 148.699 38.4343 149.935 38.4343H153.91C155.146 38.4177 155.713 39.0164 155.713 40.2804Z" fill="black"/>
<path d="M87.4354 21.4873V29.8693C87.4354 31.1333 86.7673 31.7486 85.4144 31.7486H82.1074C80.7546 31.7486 80.0865 31.1333 80.0865 29.8693V21.4873H78.6167V29.8693C78.6167 32.0314 79.7858 33.129 82.1074 33.129H85.4144C87.736 33.129 88.9051 32.0314 88.9051 29.8693V21.4873H87.4354Z" fill="#0092DA"/>
<path d="M96.9222 21.4873H93.9326C91.8448 21.4873 90.7759 22.585 90.7759 24.747V33.129H92.112V29.0212H98.7594V33.129H100.096V24.747C100.079 22.585 99.0267 21.4873 96.9222 21.4873ZM98.7594 24.747V27.6574H92.112V24.747C92.112 23.483 92.7133 22.8677 93.9326 22.8677H96.9222C98.1582 22.8677 98.7594 23.483 98.7594 24.747Z" fill="#0092DA"/>
<path d="M103.335 21.9862H104.972V26.0442H105.473V21.9862H107.11V21.4707H103.335V21.9862Z" fill="black"/>
<path d="M110.851 21.4707H108.346V26.0442H108.864V24.0152H110.851C111.369 24.0152 111.62 24.2647 111.62 24.7802V26.0442H112.138V24.7802C112.138 24.3146 112.004 23.982 111.737 23.7658C112.004 23.5495 112.138 23.2169 112.138 22.7513C112.121 21.9031 111.703 21.4707 110.851 21.4707ZM111.62 22.7513C111.62 23.2668 111.369 23.5163 110.851 23.5163H108.864V22.0029H110.851C111.369 21.9862 111.62 22.2357 111.62 22.7513Z" fill="black"/>
<path d="M115.862 21.4707H114.643C113.791 21.4707 113.374 21.9031 113.374 22.7346V26.0276H113.891V24.3977H116.647V26.0276H117.165V22.7346C117.148 21.9031 116.714 21.4707 115.862 21.4707ZM116.63 22.7513V23.9154H113.875V22.7513C113.875 22.2357 114.125 21.9862 114.643 21.9862H115.862C116.38 21.9862 116.63 22.2357 116.63 22.7513Z" fill="black"/>
<path d="M120.889 21.4707H119.67C118.818 21.4707 118.401 21.9031 118.401 22.7346V26.0276H118.919V22.7346C118.919 22.2191 119.169 21.9696 119.687 21.9696H120.906C121.424 21.9696 121.674 22.2191 121.674 22.7346V26.0276H122.192V22.7346C122.159 21.9031 121.725 21.4707 120.889 21.4707Z" fill="black"/>
<path d="M123.411 22.7512C123.411 23.5994 123.845 24.0152 124.681 24.0152H125.9C126.418 24.0152 126.668 24.2647 126.668 24.7802C126.668 25.2958 126.418 25.5453 125.9 25.5453H123.395V26.0608H125.9C126.752 26.0608 127.169 25.6284 127.169 24.7969C127.169 23.9487 126.735 23.5329 125.9 23.5329H124.681C124.163 23.5329 123.912 23.2834 123.912 22.7679C123.912 22.2523 124.163 22.0028 124.681 22.0028H127.186V21.4873H124.681C123.829 21.4706 123.411 21.9031 123.411 22.7512Z" fill="black"/>
<path d="M132.548 21.4707H132.147C131.679 21.4707 131.345 21.6037 131.128 21.8698C130.911 21.6037 130.577 21.4707 130.109 21.4707H129.708C128.857 21.4707 128.439 21.9031 128.439 22.7346V26.0276H128.957V22.7346C128.957 22.2191 129.207 21.9696 129.725 21.9696H130.126C130.644 21.9696 130.894 22.2191 130.894 22.7346V26.0276H131.412V22.7346C131.412 22.2191 131.662 21.9696 132.18 21.9696H132.581C133.099 21.9696 133.349 22.2191 133.349 22.7346V26.0276H133.867V22.7346C133.817 21.9031 133.399 21.4707 132.548 21.4707Z" fill="black"/>
<path d="M135.587 21.4707H135.069V26.0442H135.587V21.4707Z" fill="black"/>
<path d="M136.823 22.7512C136.823 23.5994 137.258 24.0152 138.093 24.0152H139.312C139.83 24.0152 140.08 24.2647 140.08 24.7802C140.08 25.2958 139.83 25.5453 139.312 25.5453H136.807V26.0608H139.312C140.164 26.0608 140.581 25.6284 140.581 24.7969C140.581 23.9487 140.147 23.5329 139.312 23.5329H138.093C137.575 23.5329 137.324 23.2834 137.324 22.7679C137.324 22.2523 137.575 22.0028 138.093 22.0028H140.598V21.4873H138.093C137.258 21.4706 136.823 21.9031 136.823 22.7512Z" fill="black"/>
<path d="M141.834 22.7512C141.834 23.5994 142.268 24.0152 143.103 24.0152H144.323C144.84 24.0152 145.091 24.2647 145.091 24.7802C145.091 25.2958 144.84 25.5453 144.323 25.5453H141.817V26.0608H144.323C145.174 26.0608 145.592 25.6284 145.592 24.7969C145.592 23.9487 145.158 23.5329 144.323 23.5329H143.103C142.586 23.5329 142.335 23.2834 142.335 22.7679C142.335 22.2523 142.586 22.0028 143.103 22.0028H145.609V21.4873H143.103C142.268 21.4706 141.834 21.9031 141.834 22.7512Z" fill="black"/>
<path d="M147.379 21.4707H146.861V26.0442H147.379V21.4707Z" fill="black"/>
<path d="M151.521 21.4707H149.884C149.032 21.4707 148.615 21.9031 148.615 22.7346V24.7802C148.615 25.6284 149.049 26.0442 149.884 26.0442H151.521C152.373 26.0442 152.79 25.6118 152.79 24.7802V22.7513C152.79 21.9031 152.356 21.4707 151.521 21.4707ZM152.273 22.7513V24.7802C152.273 25.2958 152.022 25.5453 151.504 25.5453H149.867C149.35 25.5453 149.099 25.2958 149.099 24.7802V22.7513C149.099 22.2357 149.35 21.9862 149.867 21.9862H151.504C152.022 21.9862 152.273 22.2357 152.273 22.7513Z" fill="black"/>
<path d="M156.532 21.4707H155.312C154.461 21.4707 154.043 21.9031 154.043 22.7346V26.0276H154.561V22.7346C154.561 22.2191 154.811 21.9696 155.329 21.9696H156.548C157.066 21.9696 157.317 22.2191 157.317 22.7346V26.0276H157.834V22.7346C157.801 21.9031 157.383 21.4707 156.532 21.4707Z" fill="black"/>
<path d="M103.336 29.8361C103.336 30.6843 103.77 31.1 104.605 31.1H105.824C106.342 31.1 106.592 31.3495 106.592 31.8651C106.592 32.3806 106.342 32.6301 105.824 32.6301H103.319V33.1456H105.824C106.676 33.1456 107.094 32.7132 107.094 31.8817C107.094 31.0335 106.659 30.6177 105.824 30.6177H104.605C104.087 30.6177 103.837 30.3683 103.837 29.8527C103.837 29.3371 104.087 29.0877 104.605 29.0877H107.11V28.5721H104.605C103.77 28.5721 103.336 29.0045 103.336 29.8361Z" fill="black"/>
<path d="M111.62 29.8361C111.62 30.3516 111.369 30.6011 110.852 30.6011H109.632C109.114 30.6011 108.864 30.3516 108.864 29.8361V28.5721H108.346V29.8361C108.346 30.6842 108.78 31.1 109.616 31.1H109.966V33.129H110.484V31.1H110.835C111.687 31.1 112.104 30.6676 112.104 29.8361V28.5721H111.586V29.8361H111.62Z" fill="black"/>
<path d="M113.374 29.8361C113.374 30.6843 113.808 31.1 114.643 31.1H115.862C116.38 31.1 116.631 31.3495 116.631 31.8651C116.631 32.3806 116.38 32.6301 115.862 32.6301H113.357V33.1456H115.862C116.714 33.1456 117.132 32.7132 117.132 31.8817C117.132 31.0335 116.697 30.6177 115.862 30.6177H114.643C114.125 30.6177 113.875 30.3683 113.875 29.8527C113.875 29.3371 114.125 29.0877 114.643 29.0877H117.148V28.5721H114.643C113.808 28.5721 113.374 29.0045 113.374 29.8361Z" fill="black"/>
<path d="M118.384 29.0877H120.021V33.1456H120.522V29.0877H122.159V28.5721H118.384V29.0877Z" fill="black"/>
<path d="M123.412 29.8361V31.8651C123.412 32.7132 123.846 33.129 124.681 33.129H127.186V32.6134H124.681C124.163 32.6134 123.913 32.364 123.913 31.8484V31.0834H127.17V30.6011H123.913V29.8361C123.913 29.3205 124.163 29.071 124.681 29.071H127.186V28.5555H124.681C123.829 28.5721 123.412 29.0045 123.412 29.8361Z" fill="black"/>
<path d="M132.548 28.5721H132.147C131.679 28.5721 131.345 28.7052 131.128 28.9713C130.911 28.7052 130.577 28.5721 130.109 28.5721H129.708C128.857 28.5721 128.439 29.0045 128.439 29.8361V33.129H128.957V29.8361C128.957 29.3205 129.207 29.071 129.725 29.071H130.126C130.644 29.071 130.894 29.3205 130.894 29.8361V33.129H131.412V29.8361C131.412 29.3205 131.662 29.071 132.18 29.071H132.581C133.099 29.071 133.349 29.3205 133.349 29.8361V33.129H133.867V29.8361C133.817 29.0045 133.399 28.5721 132.548 28.5721Z" fill="black"/>
<path d="M10.5222 44.7208C10.5222 27.5576 24.9027 13.6541 42.6403 13.6541C52.2774 13.6541 60.9123 17.7619 66.7914 24.248C62.2485 12.44 50.4735 4.02472 36.6776 4.02472C18.94 4.02472 4.55957 17.9283 4.55957 35.0915C4.55957 42.9413 7.58264 50.0927 12.5265 55.5643C11.2237 52.1715 10.5222 48.5293 10.5222 44.7208Z" fill="#F9B513"/>
<path d="M57.4548 56.1963C64.4362 45.4526 61.0958 31.2664 50.0057 24.5142C43.9762 20.8553 36.8945 20.1236 30.5645 21.953C38.214 16.2984 49.0202 15.5001 57.6552 20.7555C68.7621 27.5077 72.1025 41.694 65.1043 52.4377C61.9142 57.3438 57.104 60.6867 51.7761 62.2167C53.9808 60.5869 55.9015 58.5745 57.4548 56.1963Z" fill="#0092DA"/>
<path d="M24.9026 59.4892C33.8215 63.3975 44.3271 59.5724 48.3857 50.9575C50.5904 46.2842 50.4234 41.1452 48.3857 36.8045C53.4966 41.7106 55.1835 49.3443 52.0268 56.0632C47.9849 64.6947 37.4626 68.5032 28.5604 64.5949C24.4851 62.7988 21.4453 59.7054 19.7417 56.0466C21.1781 57.4436 22.9151 58.6244 24.9026 59.4892Z" fill="#F9B513"/>
<path d="M26.3222 31.1333C21.0277 36.1559 20.9442 44.3716 26.1385 49.494C28.9612 52.2713 32.7525 53.5686 36.4771 53.369C31.4999 55.5144 25.4704 54.583 21.4285 50.5916C16.2342 45.4692 16.3177 37.2535 21.6123 32.2309C24.0341 29.9359 27.1239 28.7052 30.2639 28.5388C28.8443 29.1542 27.5081 30.019 26.3222 31.1333Z" fill="#0092DA"/>
</svg>
